<svg version="1" xmlns="http://www.w3.org/2000/svg" width="933.333" height="933.333" viewBox="0 0 700.000000 700.000000"><path d="M0 350v350h700V0H0v350zm609.7-105.5c6.6 2 11.6 7.4 14 15.2 1.5 5 1.8 10 1.8 37.7v32l-25 3.7c-13.7 2.1-25.3 3.9-25.7 3.9-.4 0-.8-10.1-1-22.4-.3-20.4-.5-22.6-2.2-24.5-2.1-2.3-7.4-2.8-10.8-1-3.9 2.1-4.8 6.7-4.8 25.9 0 19.6.8 23.5 5.3 26.4 1.3.9 11.8 5.5 23.3 10.1 22.7 9.3 29.9 13.5 34.5 20.2 6.1 8.8 6.2 9.7 6.7 47 .4 39-.7 58.2-3.8 66.6-4 10.8-13.6 17.7-30.1 21.8-13.7 3.4-38.8 7-52.9 7.6-17 .7-22.9-.7-28.3-6.6-4.9-5.4-6.6-12-7.7-29.1-.9-14.4-1.4-65-.6-65 .9 0 48.3-7.1 50.9-7.6l2.7-.6v28.7c0 30.9.4 33.8 5.2 34.7 4.1.7 8-.6 10.2-3.5 2-2.7 2.1-4.2 2.4-27.5.3-28.7-.4-33.3-5.5-36.8-1.8-1.2-11.7-5.6-22-9.9-23.9-9.9-27.5-11.7-32.3-16.5-9.6-9.6-11-16.4-11-54.5.1-33.1 1-41.9 5.5-51.1 6.6-13.6 21.3-19 67.5-25.3 11-1.5 28.1-1.3 33.7.4zM484 369.1v110.2l4.9-.6 4.8-.6 1.2 9.9c1.3 12.2 4 19.4 9.2 25.4 2.7 3.1 3.6 4.7 2.7 5-1.9.6-72 10.6-74.1 10.6-1.6 0-1.7-6.7-1.5-131.2l.3-131.2 23.5-3.7c12.9-2 24.7-3.7 26.3-3.8l2.7-.1v110.1zm-72 11.4v110.4l3.3-.5c1.7-.3 4-.7 5-.9 1.6-.3 1.7 1 1.5 20.8l-.3 21.1-28 4.2c-15.4 2.3-29.4 4.5-31.2 4.7l-3.3.6V278.2l6.3-1.1c3.4-.5 10.9-1.7 16.7-2.6 5.8-.8 14.1-2.1 18.5-2.9 4.4-.7 8.8-1.4 9.8-1.5 1.6-.1 1.7 5.8 1.7 110.4zm-62 29.9v131.5l-4.7.7c-2.7.4-14.2 2.1-25.8 3.8l-21 3.2-.3-131c-.1-72 0-131.1.2-131.4.5-.4 46.5-7.9 49.9-8.1 1.6-.1 1.7 6.8 1.7 131.3zm-77-114.3c10.4 3.6 14.6 11 16 28.1 1.2 14.3 1.2 51.2 0 64.4-1.5 17.1-6.5 26.5-17.9 33.9-6.7 4.3-6.8 3.9 1.4 6.5 9.8 3 14.6 10.5 16.4 25 .6 4.8 1.1 27.7 1.1 52.7v44.2l-3.2.6c-3.8.6-48.8 7.5-49.4 7.5-.2 0-.4-21-.4-46.8 0-28.3-.4-48.1-1-50.3-1.3-4.7-5-6.4-12-5.4l-5 .7v104.5l-22.7 3.2c-12.6 1.8-24.5 3.5-26.5 3.8l-3.8.6V437.6c0-107.6.2-131.6 1.3-131.6.7 0 16.1-2.2 34.3-5 18.1-2.7 36.5-5.4 40.9-5.9 9.8-1.2 25.7-.7 30.5 1zm-114.2 32.6l-.3 20.8-15 2.2c-8.2 1.2-15.3 2.2-15.7 2.2-.5.1-.8 12.5-.8 27.6V409h2.3c1.2 0 8.1-.9 15.2-2 7.2-1.1 13.3-2 13.8-2 .4 0 .7 9.4.7 20.9v21l-4.2.6c-2.4.3-9.5 1.4-15.8 2.3l-11.5 1.7-.3 61.7c-.1 34-.5 61.8-.7 61.8-.3 0-11.9 1.8-25.7 4-13.9 2.2-25.6 4-26 4-.4 0-.8-59.1-.8-131.3V320.3l8.8-1.3c4.8-.7 22.9-3.4 40.2-6 17.3-2.7 32.5-4.9 33.8-4.9l2.2-.1-.2 20.7zM626 611v9H74v-18h552v9z"/><path d="M222.3 339.7l-2.3.4v68.8l3.8-.6c7-1 10.2-2.4 11.7-5.3 1.2-2.4 1.5-8.1 1.5-30.5 0-27.2-.4-30.7-3.4-32.7-1.2-.8-7.5-.8-11.3-.1z"/></svg>