<?xml version="1.0" encoding="utf-8"?>
<!-- Generator: Adobe Illustrator 22.0.1, SVG Export Plug-In . SVG Version: 6.00 Build 0)  -->
<svg version="1.1" id="Capa_1" xmlns="http://www.w3.org/2000/svg" xmlns:xlink="http://www.w3.org/1999/xlink" x="0px" y="0px"
	 viewBox="0 0 180 180" style="enable-background:new 0 0 180 180;" xml:space="preserve">
<style type="text/css">
	.st0{fill:#FA5117;}
	.st1{fill:#FFFFFF;}
</style>
<rect class="st0" width="180" height="180"/>
<path class="st1" d="M19,150.1l0-67.8l22.1-3.3l0,10.9l-8.3,1.2l0,14.1l8.3-1.2l0,11l-8.3,1.2l0,31.7L19,150.1z M42.7,146.5l0-67.8
	l15.9-2.4c10-1.5,14.8-1.3,15.7,5.3c0.2,1.6,0.3,3.7,0.3,6.4l0,7c0,7.4-0.2,11.5-6.4,14.7c3.8,0.6,5.5,2.3,6.1,6
	c0.2,1.1,0.3,2.5,0.3,4.1l0,22l-13.8,2.1l0-23.3c0-0.5-0.1-1-0.1-1.5c-0.2-1.6-1.2-1.9-3.2-1.6c-0.2,0-0.7,0.1-1,0.1l0,26.9
	L42.7,146.5z M57.7,87.4c-0.3,0-0.7,0.1-1.1,0.2l0,17.4c0.6-0.1,1-0.1,1.4-0.1c2.9-0.4,2.9-1.6,2.9-4.9l0-8.4c0-1.6,0-2.5-0.1-2.6
	C60.6,87.2,59.8,87.1,57.7,87.4 M90.2,139.4l0-67.8l-13.8,2.1l0,67.8L90.2,139.4z M108.6,136.7l0-11l-2.5,0.4l0-56.8l-13.8,2.1
	l0,67.8L108.6,136.7z M131.2,133.3c-2-1.2-3.3-3.4-3.7-6.5c-0.1-0.9-0.3-2.2-0.4-4l-2.6,0.4l0-56.8l-13.8,2.1l0,67.8L131.2,133.3z
	 M143,104.3l-13.9,2.1l0,13.7c0,3.3,0.2,5.4,0.4,6.5c1,6.8,5.7,6.7,15.7,5.2c7.4-1.1,11.8-2,14-5.3c1.9-2.8,1.7-6.4,1.8-11.1l0-12.7
	c0-1,0-2-0.1-3.1c-0.5-3.6-2.7-6.2-6.4-7.6l-8.6-3.5c-2-0.8-2.6-1.5-2.7-2.7c-0.1-0.7-0.1-1.3-0.1-1.7l0-6.4c0-2.1,0.4-3.4,2-3.6
	c1.4-0.2,2,0.3,2.3,1.7c0,0,0.1,0.4,0,1.3l0,9.7l13.6-2l0-10.1c0-2.3,0.1-4.5-0.2-6.4c-1-6.9-5.8-6.6-15.7-5.2
	c-13.6,2-16,3.8-15.9,16.3l0,7.9c0,1.1,0,2.3,0.2,3.5c0.6,3.8,2.5,6.4,5.8,7.8l9.4,3.9c2.2,0.9,2.5,1.6,2.7,2.9
	c0.1,0.4,0.1,0.9,0.1,1.5l0,10.1c0,2.2-0.3,3.4-2,3.6c-1.4,0.2-2-0.3-2.3-1.7c-0.1-0.6-0.1-1-0.1-1.3L143,104.3z M19,159.5h142v-4.9
	H19V159.5z"/>
</svg>
