<?xml version="1.0" encoding="utf-8"?>
<!-- Generator: Adobe Illustrator 22.0.1, SVG Export Plug-In . SVG Version: 6.00 Build 0)  -->
<svg version="1.1" id="Capa_1" xmlns="http://www.w3.org/2000/svg" xmlns:xlink="http://www.w3.org/1999/xlink" x="0px" y="0px"
	 viewBox="0 0 180 180" style="enable-background:new 0 0 180 180;" xml:space="preserve">
<style type="text/css">
	.st0{fill:#FA5117;}
</style>
<g>
	<path class="st0" d="M180,148.6l-27.7,4.1l0-152.7h-13c4.6,1.9,7.3,5.8,8.3,12.5c0.6,3.8,0.7,8.7,0.7,15l0.1,16.4
		c0.1,17.4-0.5,26.9-15,34.3c9,1.4,12.9,5.5,14.2,14.1c0.4,2.7,0.7,6,0.6,9.5l0.1,51.6l-32.3,4.8l0.1-54.5c0-1.2-0.2-2.3-0.3-3.5
		c-0.5-3.6-2.8-4.5-7.6-3.8c-0.6,0.1-1.5,0.2-2.3,0.3l0,62.9l-32.3,4.8l0-158.7l37.3-5.6c0.4-0.1,0.8-0.1,1.2-0.2H0v180h180V148.6z
		 M50.3,67.9l19.5-2.9l-0.1,25.8l-19.3,2.9l-0.1,74.3L18,172.7L18,14l51.8-7.7l-0.1,25.6l-19.5,2.9L50.3,67.9z"/>
	<path class="st0" d="M116,29.5c-0.6-3.8-2.6-4.1-7.3-3.4c-0.8,0.1-1.7,0.3-2.7,0.4l0,40.7c1.3-0.2,2.3-0.2,3.3-0.3
		c6.9-1,6.9-3.8,6.9-11.6l0-19.7C116.1,31.8,116,29.7,116,29.5z"/>
</g>
</svg>
