<?xml version="1.0" encoding="utf-8"?>
<!-- Generator: Adobe Illustrator 22.0.1, SVG Export Plug-In . SVG Version: 6.00 Build 0)  -->
<svg version="1.1" id="Capa_1" xmlns="http://www.w3.org/2000/svg" xmlns:xlink="http://www.w3.org/1999/xlink" x="0px" y="0px"
	 viewBox="0 0 30 30" style="enable-background:new 0 0 30 30;" xml:space="preserve">
<path class="st0" d="M25.3,3.6c-7.1,4-14.2,8-21.3,12c-0.5,0.3-0.4,1.1,0.2,1.2l5.3,1.1c0.4,0.1,0.5,0.2,0.4,0.6l0,7.5
	c0,0.4,0.5,0.7,0.8,0.4l5.2-4.7c0.2-0.2,0.4-0.2,0.6,0l6,4.7c0.4,0.3,1,0.1,1.1-0.4c0.9-7.2,1.8-14.4,2.7-21.6
	C26.4,3.7,25.8,3.3,25.3,3.6z M11.8,21.8c-0.2-0.1-0.2-0.1-0.5-0.1c0-1.1,0-2.3,0-3.4c0-0.2,0.1-0.3,0.2-0.4
	c3.3-3.4,6.7-6.7,10-10.1c0.2,0.2,0.1,0.1,0.3,0.3C18.6,12.6,15,17.1,11.8,21.8z"/>
</svg>
