<?xml version="1.0" encoding="utf-8"?>
<!-- Generator: Adobe Illustrator 22.0.1, SVG Export Plug-In . SVG Version: 6.00 Build 0)  -->
<svg version="1.1" id="Capa_1" xmlns="http://www.w3.org/2000/svg" xmlns:xlink="http://www.w3.org/1999/xlink" x="0px" y="0px"
	 viewBox="0 0 132 90" style="enable-background:new 0 0 132 90;" xml:space="preserve">
<path class="st0" d="M0,81.3l0-62.7l20.5-3.1l0,10.1l-7.7,1.2l0,13l7.7-1.2l0,10.2L12.8,50l0,29.3L0,81.3z M21.9,78l0-62.7l14.7-2.2
	c9.3-1.4,13.6-1.2,14.5,4.9c0.2,1.5,0.3,3.4,0.3,5.9l0,6.5c0,6.9-0.2,10.6-5.9,13.5c3.6,0.6,5.1,2.2,5.6,5.6
	c0.2,1.1,0.3,2.4,0.3,3.7l0,20.4l-12.8,1.9l0-21.5c0-0.5-0.1-0.9-0.1-1.4c-0.2-1.4-1.1-1.8-3-1.5c-0.2,0-0.6,0.1-0.9,0.1l0,24.9
	L21.9,78z M35.8,23.3c-0.3,0-0.7,0.1-1.1,0.2l0,16.1c0.5-0.1,0.9-0.1,1.3-0.1c2.7-0.4,2.7-1.5,2.7-4.6l0-7.8c0-1.5,0-2.3,0-2.4
	C38.5,23.2,37.7,23.1,35.8,23.3 M65.8,71.5l0-62.7L53,10.7l0,62.7L65.8,71.5z M82.8,68.9l0-10.2l-2.3,0.3l0-52.5L67.7,8.5l0,62.7
	L82.8,68.9z M103.7,65.8c-1.9-1.1-3-3.1-3.4-6c-0.1-0.8-0.3-2-0.3-3.7l-2.4,0.4l0-52.5L84.7,5.9l0,62.7L103.7,65.8z M114.7,39
	l-12.8,1.9l0,12.7c0,3,0.2,5,0.4,6c0.9,6.3,5.2,6.2,14.5,4.8c6.8-1,10.9-1.9,12.9-4.9c1.8-2.6,1.6-5.9,1.6-10.3l0-11.7
	c0-0.9,0-1.9-0.1-2.8c-0.5-3.3-2.5-5.7-5.9-7.1l-8-3.2c-1.8-0.7-2.4-1.4-2.5-2.5c-0.1-0.7-0.1-1.2-0.1-1.5l0-5.9
	c0-1.9,0.4-3.1,1.9-3.4c1.3-0.2,1.9,0.3,2.1,1.5c0,0,0.1,0.4,0,1.2l0,9l12.6-1.9l0-9.3c0-2.2,0.1-4.2-0.2-5.9
	c-1-6.4-5.4-6.1-14.5-4.8c-12.5,1.9-14.8,3.5-14.7,15.1l0,7.3c0,1,0,2.1,0.2,3.2c0.5,3.5,2.3,5.9,5.4,7.2l8.7,3.6
	c2.1,0.9,2.3,1.5,2.5,2.6c0.1,0.4,0,0.8,0.1,1.4l0,9.3c0,2-0.3,3.1-1.8,3.4c-1.3,0.2-1.9-0.3-2.1-1.5c-0.1-0.5-0.1-0.9-0.1-1.2
	L114.7,39z M0,90h131.3v-4.6H0V90z"/>
</svg>
