<?xml version="1.0" encoding="UTF-8"?><!DOCTYPE svg PUBLIC "-//W3C//DTD SVG 1.1//EN" "http://www.w3.org/Graphics/SVG/1.1/DTD/svg11.dtd"><svg xmlns="http://www.w3.org/2000/svg" xmlns:xlink="http://www.w3.org/1999/xlink"><symbol id="icon__cross" viewBox="0 0 30 30"><path d="M26 17.4h-8.8v8.8h-4.5v-8.8H4v-4.5h8.8V4.1h4.5v8.8H26v4.5z"/></symbol><symbol id="icon__plane" viewBox="0 0 30 30"><path class="st0" d="M25.3 3.6L4 15.6c-.5.3-.4 1.1.2 1.2l5.3 1.1c.4.1.5.2.4.6V26c0 .4.5.7.8.4l5.2-4.7c.2-.2.4-.2.6 0l6 4.7c.4.3 1 .1 1.1-.4l2.7-21.6c.1-.7-.5-1.1-1-.8zM11.8 21.8c-.2-.1-.2-.1-.5-.1v-3.4c0-.2.1-.3.2-.4 3.3-3.4 6.7-6.7 10-10.1l.3.3c-3.2 4.5-6.8 9-10 13.7z"/></symbol><symbol id="logo" viewBox="0 0 132 90"><path class="st0" d="M0 81.3V18.6l20.5-3.1v10.1l-7.7 1.2v13l7.7-1.2v10.2L12.8 50v29.3L0 81.3zM21.9 78V15.3l14.7-2.2c9.3-1.4 13.6-1.2 14.5 4.9.2 1.5.3 3.4.3 5.9v6.5c0 6.9-.2 10.6-5.9 13.5 3.6.6 5.1 2.2 5.6 5.6.2 1.1.3 2.4.3 3.7v20.4l-12.8 1.9V54c0-.5-.1-.9-.1-1.4-.2-1.4-1.1-1.8-3-1.5-.2 0-.6.1-.9.1v24.9L21.9 78zm13.9-54.7c-.3 0-.7.1-1.1.2v16.1c.5-.1.9-.1 1.3-.1 2.7-.4 2.7-1.5 2.7-4.6v-7.8-2.4c-.2-1.5-1-1.6-2.9-1.4m30 48.2V8.8L53 10.7v62.7l12.8-1.9zm17-2.6V58.7l-2.3.3V6.5l-12.8 2v62.7l15.1-2.3zm20.9-3.1c-1.9-1.1-3-3.1-3.4-6-.1-.8-.3-2-.3-3.7l-2.4.4V4L84.7 5.9v62.7l19-2.8zm11-26.8l-12.8 1.9v12.7c0 3 .2 5 .4 6 .9 6.3 5.2 6.2 14.5 4.8 6.8-1 10.9-1.9 12.9-4.9 1.8-2.6 1.6-5.9 1.6-10.3V37.5c0-.9 0-1.9-.1-2.8-.5-3.3-2.5-5.7-5.9-7.1l-8-3.2c-1.8-.7-2.4-1.4-2.5-2.5-.1-.7-.1-1.2-.1-1.5v-5.9c0-1.9.4-3.1 1.9-3.4 1.3-.2 1.9.3 2.1 1.5 0 0 .1.4 0 1.2v9l12.6-1.9v-9.3c0-2.2.1-4.2-.2-5.9-1-6.4-5.4-6.1-14.5-4.8-12.5 1.9-14.8 3.5-14.7 15.1v7.3c0 1 0 2.1.2 3.2.5 3.5 2.3 5.9 5.4 7.2l8.7 3.6c2.1.9 2.3 1.5 2.5 2.6.1.4 0 .8.1 1.4v9.3c0 2-.3 3.1-1.8 3.4-1.3.2-1.9-.3-2.1-1.5-.1-.5-.1-.9-.1-1.2l-.1-12.3zM0 90h131.3v-4.6H0V90z"/></symbol><symbol id="logo__line" preserveAspectRatio="none"><path d="M0 90h132v-4.6H0V90z" fill="#fa5117"/></symbol><symbol id="svg"/></svg>